<svg id='folder' width="20" height="20" viewBox="0 0 20 20" fill="none" xmlns="http://www.w3.org/2000/svg">
<path d="M19.6222 7.63333C19.5327 7.50325 19.4122 7.39755 19.2715 7.32577C19.1309 7.25399 18.9745 7.2184 18.8167 7.22222H6.20556C5.93947 7.2335 5.68172 7.31841 5.46103 7.4675C5.24034 7.61659 5.06535 7.82401 4.95556 8.06666C4.95375 8.09256 4.95375 8.11855 4.95556 8.14444L3.33334 13.8889V3.88889H6.9389L8.3889 5.88333C8.44061 5.95411 8.50835 6.01164 8.58656 6.05123C8.66477 6.09082 8.75124 6.11134 8.8389 6.11111H17.7778C17.7778 5.81642 17.6607 5.53381 17.4523 5.32543C17.244 5.11706 16.9614 5 16.6667 5H9.12223L7.8389 3.23333C7.73546 3.09178 7.59999 2.97671 7.44357 2.89753C7.28715 2.81836 7.11421 2.77732 6.9389 2.77777H3.33334C3.03866 2.77777 2.75604 2.89484 2.54767 3.10321C2.33929 3.31159 2.22223 3.5942 2.22223 3.88889V16.4944C2.2309 16.6944 2.31797 16.8828 2.46457 17.0191C2.61118 17.1553 2.80554 17.2283 3.00556 17.2222H16.8556C16.9795 17.2272 17.1016 17.1904 17.2023 17.118C17.303 17.0455 17.3765 16.9414 17.4111 16.8222L19.7389 8.43333C19.7823 8.3 19.7944 8.15844 19.7742 8.01968C19.7539 7.88092 19.7019 7.74871 19.6222 7.63333ZM16.4167 16.1111H3.83334L5.9889 8.43889C6.0415 8.37111 6.1162 8.32393 6.20001 8.30555H18.6056L16.4167 16.1111Z" fill="white"/>
</svg>
